<svg xmlns="http://www.w3.org/2000/svg" viewBox="0 0 451 120" width="451" height="120" role="img" aria-label="compliAI">
  <defs>
    <linearGradient id="sg" x1="18" y1="18" x2="100" y2="106" gradientUnits="userSpaceOnUse">
      <stop offset="0" stop-color="#119C92"/>
      <stop offset="1" stop-color="#0C6E6B"/>
    </linearGradient>
    <linearGradient id="ag" x1="366.91200000000003" y1="40" x2="434.96000000000004" y2="85" gradientUnits="userSpaceOnUse">
      <stop offset="0" stop-color="#0E9488"/>
      <stop offset="1" stop-color="#2FD3A6"/>
    </linearGradient>
  </defs>
  <g transform="translate(8,0)">
    <path d="M60 14 L97 26 C99 26.7 100 28.4 100 30.4 L100 58 C100 80 84 98 60 108 C36 98 20 80 20 58 L20 30.4 C20 28.4 21 26.7 23 26 Z" fill="url(#sg)"/>
    <polyline points="39,57 53,71 81,42"
      fill="none" stroke="#FFFFFF" stroke-width="11" stroke-linecap="round" stroke-linejoin="round"/>
    <circle cx="81" cy="42" r="6" fill="#34E2B4"/>
  </g>
  <path d="M169.648 43.16Q176.048 43.16 180.24 46.199999999999996Q184.43200000000002 49.239999999999995 185.904 54.872H178.032Q177.072 52.248000000000005 174.96 50.776Q172.848 49.304 169.648 49.304Q165.168 49.304 162.512 52.472Q159.856 55.64 159.856 61.336Q159.856 67.032 162.512 70.232Q165.168 73.432 169.648 73.432Q175.984 73.432 178.032 67.864H185.904Q184.368 73.24 180.144 76.40799999999999Q175.92000000000002 79.576 169.648 79.576Q164.592 79.576 160.688 77.304Q156.784 75.032 154.576 70.904Q152.368 66.776 152.368 61.336Q152.368 55.896 154.576 51.768Q156.784 47.64 160.688 45.4Q164.592 43.16 169.648 43.16ZM189.832 61.336Q189.832 55.96 192.2 51.8Q194.568 47.64 198.664 45.4Q202.76 43.16 207.816 43.16Q212.872 43.16 216.96800000000002 45.4Q221.06400000000002 47.64 223.43200000000002 51.8Q225.8 55.96 225.8 61.336Q225.8 66.712 223.368 70.872Q220.936 75.032 216.74400000000003 77.304Q212.55200000000002 79.576 207.496 79.576Q202.50400000000002 79.576 198.472 77.304Q194.44 75.032 192.136 70.904Q189.832 66.776 189.832 61.336ZM218.312 61.336Q218.312 57.495999999999995 216.84 54.839999999999996Q215.368 52.184 212.936 50.839999999999996Q210.50400000000002 49.495999999999995 207.68800000000002 49.495999999999995Q204.872 49.495999999999995 202.472 50.839999999999996Q200.072 52.184 198.664 54.839999999999996Q197.256 57.495999999999995 197.256 61.336Q197.256 67.032 200.168 70.136Q203.08 73.24 207.496 73.24Q210.312 73.24 212.776 71.89599999999999Q215.24 70.55199999999999 216.776 67.864Q218.312 65.176 218.312 61.336ZM289.248 58.2V79.0H282.016V59.288Q282.016 54.552 279.648 52.024Q277.28 49.495999999999995 273.18399999999997 49.495999999999995Q269.088 49.495999999999995 266.688 52.024Q264.288 54.552 264.288 59.288V79.0H257.056V59.288Q257.056 54.552 254.688 52.024Q252.32 49.495999999999995 248.224 49.495999999999995Q244.128 49.495999999999995 241.728 52.024Q239.328 54.552 239.328 59.288V79.0H232.032V43.736H239.328V47.768Q241.12 45.592 243.872 44.376Q246.624 43.16 249.76 43.16Q253.984 43.16 257.312 44.952Q260.64 46.744 262.432 50.135999999999996Q264.032 46.936 267.424 45.048Q270.81600000000003 43.16 274.72 43.16Q278.88 43.16 282.176 44.888Q285.472 46.616 287.36 50.007999999999996Q289.248 53.4 289.248 58.2ZM317.112 43.16Q321.72 43.16 325.528 45.432Q329.336 47.704 331.512 51.8Q333.688 55.896 333.688 61.208Q333.688 66.52 331.512 70.71199999999999Q329.336 74.904 325.528 77.24Q321.72 79.576 317.112 79.576Q313.08 79.576 309.94399999999996 77.94399999999999Q306.808 76.312 304.824 73.88V95.768H297.528V43.736H304.824V48.92Q306.68 46.488 309.88 44.824Q313.08 43.16 317.112 43.16ZM315.512 49.495999999999995Q312.76 49.495999999999995 310.296 50.903999999999996Q307.832 52.312 306.328 55.0Q304.824 57.688 304.824 61.336Q304.824 64.984 306.328 67.70400000000001Q307.832 70.424 310.296 71.832Q312.76 73.24 315.512 73.24Q318.32800000000003 73.24 320.79200000000003 71.8Q323.25600000000003 70.36 324.76 67.608Q326.264 64.856 326.264 61.208Q326.264 57.56 324.76 54.904Q323.25600000000003 52.248000000000005 320.79200000000003 50.872Q318.32800000000003 49.495999999999995 315.512 49.495999999999995ZM347.216 31.64V79.0H339.92V31.64ZM354.856 34.391999999999996Q354.856 32.408 356.20000000000005 31.064Q357.54400000000004 29.72 359.528 29.72Q361.44800000000004 29.72 362.79200000000003 31.064Q364.136 32.408 364.136 34.391999999999996Q364.136 36.376 362.79200000000003 37.72Q361.44800000000004 39.064 359.528 39.064Q357.54400000000004 39.064 356.20000000000005 37.72Q354.856 36.376 354.856 34.391999999999996ZM363.112 43.736V79.0H355.81600000000003V43.736Z" fill="#163A3E"/>
  <path d="M402.848 71.064H386.08000000000004L383.39200000000005 79.0H371.93600000000004L388.192 34.071999999999996H400.86400000000003L417.12 79.0H405.53600000000006ZM400.03200000000004 62.616 394.46400000000006 46.168 388.96000000000004 62.616ZM431.992 34.071999999999996V79.0H421.04800000000006V34.071999999999996Z" fill="url(#ag)"/>
</svg>
